<?xml version="1.0" encoding="UTF-8"?>
<svg version="1.1" xmlns="http://www.w3.org/2000/svg" width="499" height="500">
<path d="M0 0 C1.20178391 -0.0066568 2.40356781 -0.0133136 3.64176941 -0.02017212 C6.17400593 -0.03025666 8.70626881 -0.03499045 11.23852539 -0.03466797 C15.08329686 -0.0390373 18.92691579 -0.07539403 22.77148438 -0.11328125 C25.2434857 -0.11915125 27.71549242 -0.12311942 30.1875 -0.125 C31.32226273 -0.13937103 32.45702545 -0.15374207 33.62617493 -0.16854858 C49.66274757 -0.07811915 62.22941172 6.74287686 73.73828125 17.55078125 C84.77290234 29.58088038 86.43174581 43.18053374 86.49609375 58.78125 C86.50179382 59.86872528 86.5074939 60.95620056 86.5133667 62.07662964 C86.52277744 64.37106363 86.52933499 66.6655109 86.53320312 68.95996094 C86.54288045 72.42928298 86.57393073 75.89800484 86.60546875 79.3671875 C86.70090249 98.98787034 85.60782451 115.02552886 71.23046875 129.8359375 C65.7862004 135.1302017 60.41954563 138.54363623 53.23046875 141.0234375 C52.04324219 141.43980469 50.85601562 141.85617187 49.6328125 142.28515625 C43.42189384 144.23923475 37.86583784 144.47008406 31.3984375 144.43359375 C30.45108231 144.4321788 29.50372711 144.43076385 28.52766418 144.42930603 C25.5118998 144.42372361 22.49621057 144.41117432 19.48046875 144.3984375 C17.4316417 144.39342023 15.38281348 144.38885772 13.33398438 144.38476562 C8.32028369 144.37375993 3.30663895 144.35650738 -1.70703125 144.3359375 C-1.69655762 145.0472583 -1.68608398 145.7585791 -1.67529297 146.49145508 C-1.63375124 149.71041336 -1.60771086 152.92931526 -1.58203125 156.1484375 C-1.56527344 157.26798828 -1.54851562 158.38753906 -1.53125 159.54101562 C-1.52480469 160.61416016 -1.51835937 161.68730469 -1.51171875 162.79296875 C-1.50124512 163.78272705 -1.49077148 164.77248535 -1.47998047 165.79223633 C-1.70703125 168.3359375 -1.70703125 168.3359375 -3.70703125 171.3359375 C-6.19726562 171.69238281 -6.19726562 171.69238281 -9.30078125 171.6640625 C-10.96947266 171.65632813 -10.96947266 171.65632813 -12.671875 171.6484375 C-13.83847656 171.6278125 -15.00507813 171.6071875 -16.20703125 171.5859375 C-17.37363281 171.58078125 -18.54023438 171.575625 -19.7421875 171.5703125 C-28.39877417 171.49006604 -28.39877417 171.49006604 -30.70703125 170.3359375 C-31.20203125 157.9609375 -31.20203125 157.9609375 -31.70703125 145.3359375 C-39.88934746 145.04665127 -39.88934746 145.04665127 -48.07202148 144.76782227 C-49.08466064 144.72971436 -50.0972998 144.69160645 -51.140625 144.65234375 C-52.7038147 144.59735718 -52.7038147 144.59735718 -54.29858398 144.54125977 C-56.70703125 144.3359375 -56.70703125 144.3359375 -57.70703125 143.3359375 C-57.7944077 141.48224139 -57.81401278 139.62526209 -57.8046875 137.76953125 C-57.80146484 136.64482422 -57.79824219 135.52011719 -57.79492188 134.36132812 C-57.78654297 133.17732422 -57.77816406 131.99332031 -57.76953125 130.7734375 C-57.76501953 129.58556641 -57.76050781 128.39769531 -57.75585938 127.17382812 C-57.744028 124.22781524 -57.72754412 121.28190069 -57.70703125 118.3359375 C-58.45911865 118.34117432 -59.21120605 118.34641113 -59.98608398 118.35180664 C-63.37222467 118.37250977 -66.75835209 118.38557627 -70.14453125 118.3984375 C-71.92053711 118.41100586 -71.92053711 118.41100586 -73.73242188 118.42382812 C-74.85712891 118.42705078 -75.98183594 118.43027344 -77.140625 118.43359375 C-78.7038147 118.44144897 -78.7038147 118.44144897 -80.29858398 118.44946289 C-82.70703125 118.3359375 -82.70703125 118.3359375 -83.70703125 117.3359375 C-83.80696657 115.2753844 -83.83784031 113.2114116 -83.83984375 111.1484375 C-83.84113281 109.89289063 -83.84242188 108.63734375 -83.84375 107.34375 C-83.84165527 106.68665039 -83.83956055 106.02955078 -83.83740234 105.35253906 C-83.83205359 103.34432415 -83.83734816 101.33633291 -83.84375 99.328125 C-83.84246094 98.07257813 -83.84117187 96.81703125 -83.83984375 95.5234375 C-83.83871582 94.36199219 -83.83758789 93.20054687 -83.83642578 92.00390625 C-83.70703125 89.3359375 -83.70703125 89.3359375 -82.70703125 88.3359375 C-80.85333514 88.24856105 -78.99635584 88.22895597 -77.140625 88.23828125 C-76.01591797 88.24150391 -74.89121094 88.24472656 -73.73242188 88.24804688 C-72.54841797 88.25642578 -71.36441406 88.26480469 -70.14453125 88.2734375 C-68.95666016 88.27794922 -67.76878906 88.28246094 -66.54492188 88.28710938 C-63.59890899 88.29894075 -60.65299444 88.31542463 -57.70703125 88.3359375 C-57.73321533 87.04606934 -57.75939941 85.75620117 -57.78637695 84.42724609 C-57.87782892 79.57798046 -57.93462149 74.72878873 -57.98168945 69.87890625 C-58.00661948 67.7918612 -58.04057637 65.70490148 -58.08422852 63.61816406 C-58.45896453 45.22523863 -56.32463204 30.19035559 -43.52734375 15.90234375 C-31.07719362 3.79916501 -16.87426634 0.03291988 0 0 Z M-25.45703125 40.4609375 C-27.53371173 43.57595822 -27.84250262 46.25694484 -27.91235352 49.89916992 C-27.93229874 50.81989792 -27.95224396 51.74062592 -27.97279358 52.68925476 C-27.99786232 54.17531975 -27.99786232 54.17531975 -28.0234375 55.69140625 C-28.0442186 56.70817947 -28.06499969 57.7249527 -28.08641052 58.77253723 C-28.15183173 62.02276813 -28.21075662 65.27308027 -28.26953125 68.5234375 C-28.31272352 70.72591988 -28.35633804 72.92839403 -28.40039062 75.13085938 C-28.50830068 80.53246999 -28.60742968 85.93414167 -28.70703125 91.3359375 C-37.28703125 91.3359375 -45.86703125 91.3359375 -54.70703125 91.3359375 C-54.70703125 99.2559375 -54.70703125 107.1759375 -54.70703125 115.3359375 C-52.91394531 115.39652344 -51.12085938 115.45710938 -49.2734375 115.51953125 C-46.93879301 115.60391599 -44.60415806 115.68856501 -42.26953125 115.7734375 C-41.08552734 115.81275391 -39.90152344 115.85207031 -38.68164062 115.89257812 C-37.55693359 115.93447266 -36.43222656 115.97636719 -35.2734375 116.01953125 C-34.23131104 116.05618896 -33.18918457 116.09284668 -32.11547852 116.13061523 C-29.70703125 116.3359375 -29.70703125 116.3359375 -28.70703125 117.3359375 C-28.5493872 119.11463476 -28.45602448 120.89912226 -28.390625 122.68359375 C-28.34873047 123.76318359 -28.30683594 124.84277344 -28.26367188 125.95507812 C-28.22435547 127.09138672 -28.18503906 128.22769531 -28.14453125 129.3984375 C-28.10134766 130.53861328 -28.05816406 131.67878906 -28.01367188 132.85351562 C-27.90720387 135.68083258 -27.80657863 138.50836842 -27.70703125 141.3359375 C-20.11703125 141.3359375 -12.52703125 141.3359375 -4.70703125 141.3359375 C-4.37703125 133.0859375 -4.04703125 124.8359375 -3.70703125 116.3359375 C-0.79117188 116.31015625 2.1246875 116.284375 5.12890625 116.2578125 C7.98202789 116.21929781 10.83497454 116.17416807 13.68798828 116.12841797 C15.65665196 116.10035411 17.62542526 116.07906771 19.59423828 116.06494141 C22.43969258 116.04330845 25.28384888 115.9965568 28.12890625 115.9453125 C29.42953506 115.94346954 29.42953506 115.94346954 30.75643921 115.94158936 C37.73614152 115.77776661 44.79753707 114.35607833 50.21615601 109.67425537 C56.95593578 102.60509961 57.75379269 94.44327226 57.7265625 85.1171875 C57.73180435 84.05987427 57.7370462 83.00256104 57.7424469 81.91320801 C57.74884271 79.68775304 57.74756192 77.46226415 57.73901367 75.23681641 C57.73049419 71.84606416 57.75931642 68.45699289 57.79101562 65.06640625 C57.79262771 62.89583383 57.79204996 60.72525846 57.7890625 58.5546875 C57.80029648 57.54925903 57.81153046 56.54383057 57.82310486 55.50793457 C57.73344626 46.38441409 54.73310296 39.77607171 48.29296875 33.3359375 C42.05383304 29.82041646 36.31296558 29.89861587 29.26171875 29.9375 C28.11183472 29.93462982 26.96195068 29.93175964 25.77722168 29.92880249 C23.35326646 29.92676683 20.92929462 29.93226169 18.50537109 29.94482422 C14.80528869 29.96088403 11.10629862 29.94495758 7.40625 29.92578125 C5.04557052 29.92776377 2.68489171 29.93160762 0.32421875 29.9375 C-1.32761414 29.92839096 -1.32761414 29.92839096 -3.01281738 29.9190979 C-13.31380886 30.01294498 -18.76712488 32.33747977 -25.45703125 40.4609375 Z " fill="#6B65D9" transform="translate(247.70703125,164.6640625)"/>
<path d="M0 0 C1.62808594 -0.05607422 1.62808594 -0.05607422 3.2890625 -0.11328125 C12.28217365 -0.21222746 12.28217365 -0.21222746 15.953125 2.7109375 C20.30649359 7.76025277 19.53870476 13.32910992 19.625 19.6875 C19.68107422 21.23727539 19.68107422 21.23727539 19.73828125 22.81835938 C19.83701536 31.36983075 19.83701536 31.36983075 16.8515625 35.04296875 C12.8698399 38.61217054 10.8198174 38.50299835 5.52734375 38.5078125 C4.86666397 38.50876923 4.20598419 38.50972595 3.52528381 38.51071167 C2.12907821 38.51139216 0.73286944 38.509547 -0.66333008 38.50537109 C-2.80752614 38.50001243 -4.95151353 38.50532479 -7.09570312 38.51171875 C-8.4505213 38.51105811 -9.80533934 38.50977725 -11.16015625 38.5078125 C-12.39902588 38.50668457 -13.63789551 38.50555664 -14.91430664 38.50439453 C-17.75 38.375 -17.75 38.375 -18.75 37.375 C-19.04100893 33.19220706 -19.06410985 29.00337448 -19.10009766 24.81176758 C-19.11659626 23.40437208 -19.14380612 21.99705827 -19.18212891 20.59008789 C-19.53948942 7.40037742 -19.53948942 7.40037742 -16.3515625 3.48046875 C-11.24428501 -0.65289847 -6.37091255 0.08206093 0 0 Z " fill="#6964D7" transform="translate(261.75,217.625)"/>
<path d="M0 0 C8.58 0 17.16 0 26 0 C26 8.58 26 17.16 26 26 C17.42 26 8.84 26 0 26 C0 17.42 0 8.84 0 0 Z " fill="#6C66D9" transform="translate(165,255)"/>
<path d="M0 0 C8.66666667 0 17.33333333 0 26 0 C26 8.25 26 16.5 26 25 C17.42 25 8.84 25 0 25 C0 16.75 0 8.5 0 0 Z " fill="#6C65DA" transform="translate(218,309)"/>
<path d="M0 0 C1 2 1 2 0.4765625 4.13671875 C0.19554687 4.97847656 -0.08546875 5.82023438 -0.375 6.6875 C-1.37349777 9.80949982 -2.19892296 12.7415265 -2.5625 16 C-3 19 -3 19 -5 21 C-5.32977606 23.01833943 -5.32977606 23.01833943 -5.31884766 25.35791016 C-5.33871735 26.25869293 -5.35858704 27.15947571 -5.37905884 28.08755493 C-5.39638565 29.54855118 -5.39638565 29.54855118 -5.4140625 31.0390625 C-5.43342865 32.03505463 -5.4527948 33.03104675 -5.4727478 34.05722046 C-5.53264965 37.2463925 -5.57897138 40.43560043 -5.625 43.625 C-5.66317001 45.78387013 -5.70222116 47.94272488 -5.7421875 50.1015625 C-5.84002258 55.40096276 -5.91950734 60.70019406 -6 66 C2.58 66 11.16 66 20 66 C19.67 65.01 19.34 64.02 19 63 C18.94133444 61.63315654 18.94040011 60.26332954 18.97827148 58.89575195 C18.99836777 58.07512772 19.01846405 57.25450348 19.03916931 56.40901184 C19.06620438 55.52767075 19.09323944 54.64632965 19.12109375 53.73828125 C19.15651024 52.37959175 19.15651024 52.37959175 19.19264221 50.99345398 C19.26923144 48.09964135 19.35327631 45.20609952 19.4375 42.3125 C19.49072542 40.35092472 19.54346579 38.38933622 19.59570312 36.42773438 C19.72484022 31.61831801 19.86066442 26.80913127 20 22 C20.66 22 21.32 22 22 22 C22.07408977 28.06890175 22.12857359 34.13754097 22.16479492 40.20678711 C22.17989271 42.27193791 22.20037274 44.3370566 22.22631836 46.40209961 C22.26265795 49.36840739 22.2797163 52.33429171 22.29296875 55.30078125 C22.30845261 56.2258699 22.32393646 57.15095856 22.33988953 58.1040802 C22.34011612 58.96474594 22.34034271 59.82541168 22.34057617 60.7121582 C22.34723801 61.46938675 22.35389984 62.2266153 22.36076355 63.00679016 C21.89876757 65.5593067 21.04206959 66.44439839 19 68 C16.45629883 68.2487793 16.45629883 68.2487793 13.45703125 68.07421875 C12.00647339 68.00207153 12.00647339 68.00207153 10.52661133 67.9284668 C9.30095459 67.84894775 8.07529785 67.76942871 6.8125 67.6875 C2.914375 67.460625 -0.98375 67.23375 -5 67 C-5 74.92 -5 82.84 -5 91 C3.25 91 11.5 91 20 91 C20 91.33 20 91.66 20 92 C11.42 92.33 2.84 92.66 -6 93 C-6.33 101.58 -6.66 110.16 -7 119 C-7.33 119 -7.66 119 -8 119 C-8 110.75 -8 102.5 -8 94 C-16.18252797 94.0395914 -16.18252797 94.0395914 -24.36499023 94.09008789 C-25.88394897 94.09383423 -25.88394897 94.09383423 -27.43359375 94.09765625 C-28.99678345 94.10551147 -28.99678345 94.10551147 -30.59155273 94.11352539 C-33 94 -33 94 -34 93 C-34.09993532 90.9394469 -34.13080906 88.8754741 -34.1328125 86.8125 C-34.13410156 85.55695313 -34.13539063 84.30140625 -34.13671875 83.0078125 C-34.13462402 82.35071289 -34.1325293 81.69361328 -34.13037109 81.01660156 C-34.12502234 79.00838665 -34.13031691 77.00039541 -34.13671875 74.9921875 C-34.13542969 73.73664063 -34.13414062 72.48109375 -34.1328125 71.1875 C-34.13168457 70.02605469 -34.13055664 68.86460937 -34.12939453 67.66796875 C-34 65 -34 65 -33 64 C-31.14630389 63.91262355 -29.28932459 63.89301847 -27.43359375 63.90234375 C-26.30888672 63.90556641 -25.18417969 63.90878906 -24.02539062 63.91210938 C-22.84138672 63.92048828 -21.65738281 63.92886719 -20.4375 63.9375 C-19.24962891 63.94201172 -18.06175781 63.94652344 -16.83789062 63.95117188 C-13.89187774 63.96300325 -10.94596319 63.97948713 -8 64 C-8.02618408 62.71013184 -8.05236816 61.42026367 -8.0793457 60.09130859 C-8.17079767 55.24204296 -8.22759024 50.39285123 -8.2746582 45.54296875 C-8.29958823 43.4559237 -8.33354512 41.36896398 -8.37719727 39.28222656 C-8.67798965 24.51862851 -8.03638406 12.86468952 0 0 Z M-33 66 C-33 74.58 -33 83.16 -33 92 C-24.42 92 -15.84 92 -7 92 C-7 83.42 -7 74.84 -7 66 C-15.58 66 -24.16 66 -33 66 Z " fill="#413A88" transform="translate(198,189)"/>
<path d="M0 0 C0.66 0.33 1.32 0.66 2 1 C2 9.25 2 17.5 2 26 C19.49 25.67 36.98 25.34 55 25 C48.61615472 28.19192264 43.10620026 28.13715572 36.10546875 28.09765625 C35.15811356 28.0962413 34.21075836 28.09482635 33.23469543 28.09336853 C30.21893105 28.08778611 27.20324182 28.07523682 24.1875 28.0625 C22.13867295 28.05748273 20.08984473 28.05292022 18.04101562 28.04882812 C13.02731494 28.03782243 8.0136702 28.02056988 3 28 C3.01047363 28.7113208 3.02094727 29.4226416 3.03173828 30.15551758 C3.07328001 33.37447586 3.09932039 36.59337776 3.125 39.8125 C3.14175781 40.93205078 3.15851563 42.05160156 3.17578125 43.20507812 C3.18544922 44.81479492 3.18544922 44.81479492 3.1953125 46.45703125 C3.21102295 47.9416687 3.21102295 47.9416687 3.22705078 49.45629883 C3 52 3 52 1 55 C-1.49023437 55.35644531 -1.49023437 55.35644531 -4.59375 55.328125 C-6.26244141 55.32039063 -6.26244141 55.32039063 -7.96484375 55.3125 C-9.13144531 55.291875 -10.29804688 55.27125 -11.5 55.25 C-12.66660156 55.24484375 -13.83320313 55.2396875 -15.03515625 55.234375 C-23.69174292 55.15412854 -23.69174292 55.15412854 -26 54 C-26.495 41.625 -26.495 41.625 -27 29 C-35.25 28.67 -43.5 28.34 -52 28 C-52 27.67 -52 27.34 -52 27 C-42.76 26.67 -33.52 26.34 -24 26 C-24 17.75 -24 9.5 -24 1 C-23.67 1 -23.34 1 -23 1 C-23 8.92 -23 16.84 -23 25 C-15.41 25 -7.82 25 0 25 C0 16.75 0 8.5 0 0 Z M-25 28 C-25 36.25 -25 44.5 -25 53 C-16.42 53 -7.84 53 1 53 C1 44.75 1 36.5 1 28 C0.01 28.495 0.01 28.495 -1 29 C-1.66 28.67 -2.32 28.34 -3 28 C-4.6674606 27.91573906 -6.33825187 27.89274857 -8.0078125 27.90234375 C-9.34030029 27.90609009 -9.34030029 27.90609009 -10.69970703 27.90991211 C-11.83005371 27.91901611 -12.96040039 27.92812012 -14.125 27.9375 C-17.71375 27.958125 -21.3025 27.97875 -25 28 Z " fill="#48418F" transform="translate(243,281)"/>
<path d="M0 0 C1 2 1 2 0.4765625 4.13671875 C0.19554687 4.97847656 -0.08546875 5.82023438 -0.375 6.6875 C-1.37349777 9.80949982 -2.19892296 12.7415265 -2.5625 16 C-3 19 -3 19 -5 21 C-5.33016506 23.09980044 -5.33016506 23.09980044 -5.31884766 25.54150391 C-5.33871735 26.48232819 -5.35858704 27.42315247 -5.37905884 28.39248657 C-5.39638565 29.91910416 -5.39638565 29.91910416 -5.4140625 31.4765625 C-5.43342865 32.51694672 -5.4527948 33.55733093 -5.4727478 34.62924194 C-5.53265727 37.9610772 -5.57897452 41.29294679 -5.625 44.625 C-5.6631693 46.88022363 -5.7022204 49.13543252 -5.7421875 51.390625 C-5.83836799 56.92695275 -5.92338196 62.46336885 -6 68 C-6.495 67.01 -6.495 67.01 -7 66 C-15.58 66 -24.16 66 -33 66 C-33 74.91 -33 83.82 -33 93 C-33.33 93 -33.66 93 -34 93 C-34.02465881 89.03069011 -34.04284023 85.06140966 -34.05493164 81.09204102 C-34.05997057 79.74079614 -34.06680177 78.38955674 -34.07543945 77.03833008 C-34.08752419 75.09979566 -34.09269828 73.161222 -34.09765625 71.22265625 C-34.10289307 70.05484619 -34.10812988 68.88703613 -34.11352539 67.68383789 C-34 65 -34 65 -33 64 C-31.14630389 63.91262355 -29.28932459 63.89301847 -27.43359375 63.90234375 C-26.30888672 63.90556641 -25.18417969 63.90878906 -24.02539062 63.91210938 C-22.84138672 63.92048828 -21.65738281 63.92886719 -20.4375 63.9375 C-19.24962891 63.94201172 -18.06175781 63.94652344 -16.83789062 63.95117188 C-13.89187774 63.96300325 -10.94596319 63.97948713 -8 64 C-8.02618408 62.71013184 -8.05236816 61.42026367 -8.0793457 60.09130859 C-8.17079767 55.24204296 -8.22759024 50.39285123 -8.2746582 45.54296875 C-8.29958823 43.4559237 -8.33354512 41.36896398 -8.37719727 39.28222656 C-8.67798965 24.51862851 -8.03638406 12.86468952 0 0 Z " fill="#403C8F" transform="translate(198,189)"/>
<path d="M0 0 C1.08197662 -0.01283524 2.16395325 -0.02567047 3.27871704 -0.03889465 C5.01319595 -0.04997505 5.01319595 -0.04997505 6.78271484 -0.0612793 C7.98874359 -0.06935104 9.19477234 -0.07742279 10.43734741 -0.08573914 C12.987514 -0.09954759 15.53769882 -0.11028417 18.08789062 -0.11816406 C20.68104514 -0.12967262 23.27417617 -0.15010632 25.8671875 -0.1796875 C29.63085899 -0.22259268 33.39382841 -0.23856605 37.15771484 -0.2487793 C38.30188873 -0.26628738 39.44606262 -0.28379547 40.62490845 -0.30183411 C48.52700688 -0.28083461 58.47081579 0.2791654 64.36865234 6.17700195 C61.74305391 5.86898756 59.11825429 5.55580014 56.49365234 5.23950195 C55.74728516 5.15249023 55.00091797 5.06547852 54.23193359 4.97583008 C48.59521484 4.2902832 48.59521484 4.2902832 46.36865234 3.17700195 C44.85994426 3.0670815 43.34658499 3.01794356 41.83398438 3 C40.42078415 2.98074715 40.42078415 2.98074715 38.97903442 2.96110535 C37.95518646 2.95371841 36.9313385 2.94633148 35.87646484 2.9387207 C34.82014862 2.93064896 33.7638324 2.92257721 32.67550659 2.91426086 C30.43098598 2.90040503 28.18644417 2.88968962 25.94189453 2.88183594 C22.54205877 2.86474529 19.14322669 2.82088693 15.74365234 2.77661133 C1.34194449 2.48217393 1.34194449 2.48217393 -12.37695312 6.28857422 C-16.15467233 7.77732451 -19.62621593 7.44401074 -23.63134766 7.17700195 C-17.09451273 1.45727139 -8.43016683 0.08778898 0 0 Z " fill="#454290" transform="translate(240.63134765625,164.822998046875)"/>
<path d="M0 0 C0.66 0 1.32 0 2 0 C4.62464332 4.9803466 4.38484365 10.06735919 4.484375 15.55859375 C4.5084845 16.58050308 4.53259399 17.60241241 4.55743408 18.6552887 C4.60564931 20.81281722 4.64905834 22.97045779 4.68798828 25.12817383 C4.74971992 28.42255335 4.83283605 31.71591742 4.91796875 35.00976562 C4.96223057 37.10934814 5.00524094 39.20895748 5.046875 41.30859375 C5.07279724 42.29000839 5.09871948 43.27142303 5.12542725 44.28257751 C5.19966269 49.28548471 5.00498684 53.3110604 3 58 C2.34 58 1.68 58 1 58 C0.5978125 58.9590625 0.5978125 58.9590625 0.1875 59.9375 C-1 62 -1 62 -4 63 C-3.71125 62.29875 -3.4225 61.5975 -3.125 60.875 C-2.75375 59.92625 -2.3825 58.9775 -2 58 C-1.47623779 56.79609619 -1.47623779 56.79609619 -0.94189453 55.56787109 C0.4265418 50.38427115 0.2451089 45.37670244 0.1953125 40.0390625 C0.1924826 38.89335785 0.18965271 37.7476532 0.18673706 36.56723022 C0.17557135 32.91971245 0.15047299 29.27244315 0.125 25.625 C0.11496555 23.14713897 0.10584051 20.66927408 0.09765625 18.19140625 C0.0756438 12.12751986 0.04220194 6.06377769 0 0 Z " fill="#5450A6" transform="translate(304,209)"/>
<path d="M0 0 C0.8745433 -0.0033284 1.74908661 -0.0066568 2.65013123 -0.01008606 C4.48281332 -0.01510705 6.3155044 -0.0174959 8.14819336 -0.01733398 C10.93032962 -0.01952868 13.71207377 -0.03775837 16.49414062 -0.05664062 C18.28775908 -0.05957407 20.08137939 -0.06155919 21.875 -0.0625 C23.10350426 -0.07327827 23.10350426 -0.07327827 24.35682678 -0.08427429 C31.0793311 -0.05802374 37.67435662 0.370144 43.37109375 4.16796875 C43.55859375 6.79296875 43.55859375 6.79296875 43.37109375 9.16796875 C44.36109375 9.66296875 44.36109375 9.66296875 45.37109375 10.16796875 C42.37109375 10.16796875 42.37109375 10.16796875 40.68359375 8.79296875 C39.37109375 7.16796875 39.37109375 7.16796875 39.37109375 5.16796875 C33.0207735 2.91552162 27.00944181 2.824148 20.3125 2.75390625 C19.1682103 2.7345401 18.02392059 2.71517395 16.84495544 2.69522095 C13.20790953 2.63567795 9.57083154 2.58914063 5.93359375 2.54296875 C3.46027303 2.50476575 0.98696529 2.46571267 -1.48632812 2.42578125 C-7.53373858 2.32999719 -13.58122786 2.24487625 -19.62890625 2.16796875 C-19.62890625 1.83796875 -19.62890625 1.50796875 -19.62890625 1.16796875 C-13.06747539 0.41265289 -6.60326185 0.00899444 0 0 Z " fill="#38348E" transform="translate(256.62890625,192.83203125)"/>
<path d="M0 0 C0 0.99 0 1.98 0 3 C-4.18701588 4.01123036 -8.12512118 4.12909657 -12.42578125 4.1328125 C-13.13220261 4.13376923 -13.83862396 4.13472595 -14.56645203 4.13571167 C-16.05659067 4.13638984 -17.54673233 4.13456093 -19.03686523 4.13037109 C-21.29482825 4.12504171 -23.55259019 4.13031599 -25.81054688 4.13671875 C-27.26562543 4.13605744 -28.72070387 4.13477518 -30.17578125 4.1328125 C-31.48458252 4.13168457 -32.79338379 4.13055664 -34.1418457 4.12939453 C-38.16789166 3.99436926 -42.0136847 3.55826709 -46 3 C-46 2.34 -46 1.68 -46 1 C-40.09181144 0.85697406 -34.18360825 0.71457428 -28.27539062 0.57275391 C-26.26562085 0.52442342 -24.25585518 0.47592205 -22.24609375 0.42724609 C-19.35678147 0.35729733 -16.46745497 0.28796378 -13.578125 0.21875 C-12.68007141 0.19687622 -11.78201782 0.17500244 -10.85675049 0.15246582 C-10.01618103 0.13244507 -9.17561157 0.11242432 -8.30957031 0.09179688 C-7.20370575 0.06514954 -7.20370575 0.06514954 -6.07550049 0.03796387 C-4.05063283 0.00092615 -2.02520637 0 0 0 Z " fill="#5D59AF" transform="translate(290,279)"/>
<path d="M0 0 C3.02349342 4.53524014 2.40786466 8.97484558 2.4375 14.3125 C2.47037109 15.34568359 2.50324219 16.37886719 2.53710938 17.44335938 C2.59731401 25.97599748 2.59731401 25.97599748 -0.40234375 29.66796875 C-4.39733529 33.25444988 -6.44437045 33.11998164 -11.7578125 33.09765625 C-12.75238968 33.09553383 -12.75238968 33.09553383 -13.76705933 33.09336853 C-15.88641863 33.08776754 -18.00567259 33.075215 -20.125 33.0625 C-21.56119639 33.05748512 -22.99739444 33.05292219 -24.43359375 33.04882812 C-27.95576345 33.03779782 -31.47787145 33.02053259 -35 33 C-35 32.67 -35 32.34 -35 32 C-33.329375 31.5359375 -33.329375 31.5359375 -31.625 31.0625 C-28.2054845 30.17673517 -28.2054845 30.17673517 -26 29 C-26 29.66 -26 30.32 -26 31 C-15.605 30.505 -15.605 30.505 -5 30 C-5 29.34 -5 28.68 -5 28 C-3.68 28 -2.36 28 -1 28 C0.0592918 24.82212459 0.11458939 22.57411057 0.09765625 19.23828125 C0.09443359 18.12001953 0.09121094 17.00175781 0.08789062 15.84960938 C0.07951172 14.68236328 0.07113281 13.51511719 0.0625 12.3125 C0.05798828 11.13365234 0.05347656 9.95480469 0.04882812 8.74023438 C0.03703273 5.82677211 0.0205727 2.91341137 0 0 Z " fill="#5953AA" transform="translate(279,223)"/>
<path d="M0 0 C8.58 0 17.16 0 26 0 C26 8.58 26 17.16 26 26 C19.07 26 12.14 26 5 26 C5 25.67 5 25.34 5 25 C11.27 24.67 17.54 24.34 24 24 C24.04125 20.926875 24.0825 17.85375 24.125 14.6875 C24.14320801 13.72287842 24.16141602 12.75825684 24.18017578 11.7644043 C24.1851709 11.00039307 24.19016602 10.23638184 24.1953125 9.44921875 C24.20578613 8.66893311 24.21625977 7.88864746 24.22705078 7.0847168 C24.12880859 4.6934152 24.12880859 4.6934152 22 2 C20.0330857 1.59689514 20.0330857 1.59689514 17.8125 1.75 C17.00683594 1.77449219 16.20117188 1.79898437 15.37109375 1.82421875 C13.36281363 1.97310278 11.36497603 2.25371062 9.375 2.5625 C5.6903753 3.04013654 2.63955786 2.66849022 -1 2 C-0.67 1.34 -0.34 0.68 0 0 Z " fill="#6F68CB" transform="translate(192,281)"/>
<path d="M0 0 C0.66 0 1.32 0 2 0 C2 14.19 2 28.38 2 43 C1.01 43.495 1.01 43.495 0 44 C-0.92645446 41.22063662 -1.10056322 39.74256078 -1.02172852 36.89575195 C-1.00163223 36.07512772 -0.98153595 35.25450348 -0.96083069 34.40901184 C-0.93379562 33.52767075 -0.90676056 32.64632965 -0.87890625 31.73828125 C-0.85529526 30.83248825 -0.83168427 29.92669525 -0.80735779 28.99345398 C-0.73076856 26.09964135 -0.64672369 23.20609952 -0.5625 20.3125 C-0.50927458 18.35092472 -0.45653421 16.38933622 -0.40429688 14.42773438 C-0.27515978 9.61831801 -0.13933558 4.80913127 0 0 Z " fill="#332F7C" transform="translate(218,211)"/>
<path d="M0 0 C1 2 1 2 0.4765625 4.13671875 C0.05503906 5.39935547 0.05503906 5.39935547 -0.375 6.6875 C-1.37349777 9.80949982 -2.19892296 12.7415265 -2.5625 16 C-3 19 -3 19 -5 21 C-5.30059943 23.36509361 -5.49515012 25.74441881 -5.625 28.125 C-5.69976562 29.40632813 -5.77453125 30.68765625 -5.8515625 32.0078125 C-5.90054688 32.99523437 -5.94953125 33.98265625 -6 35 C-6.33 35 -6.66 35 -7 35 C-7.69404965 22.22434542 -7.48511844 12.2995554 -1 1 C-0.67 0.67 -0.34 0.34 0 0 Z " fill="#5F5BB6" transform="translate(198,189)"/>
<path d="M0 0 C1.32 0.66 2.64 1.32 4 2 C-8.54952077 17.09864217 -8.54952077 17.09864217 -17 19 C-17 18.34 -17 17.68 -17 17 C-15.36395804 15.62926214 -13.69321939 14.29944744 -12 13 C-11.46375 12.4225 -10.9275 11.845 -10.375 11.25 C-9 10 -9 10 -6 10 C-6 9.01 -6 8.02 -6 7 C-4.68 7 -3.36 7 -2 7 C-2 6.01 -2 5.02 -2 4 C-1.34 4 -0.68 4 0 4 C-0.33 3.01 -0.66 2.02 -1 1 C-0.67 0.67 -0.34 0.34 0 0 Z " fill="#5E5AB5" transform="translate(321,285)"/>
<path d="M0 0 C1.09699219 -0.00257813 2.19398438 -0.00515625 3.32421875 -0.0078125 C11.38422155 0.09108324 11.38422155 0.09108324 13.71044922 2.02929688 C14.09475098 2.51462891 14.47905273 2.99996094 14.875 3.5 C14.18986328 3.48952637 13.50472656 3.47905273 12.79882812 3.46826172 C9.65759026 3.42637148 6.51641143 3.40056963 3.375 3.375 C2.29734375 3.35824219 1.2196875 3.34148437 0.109375 3.32421875 C-6.01324592 3.2868857 -11.26605614 3.69396633 -17.125 5.5 C-12.60579494 -0.90389596 -7.36983748 -0.19187743 0 0 Z " fill="#494695" transform="translate(262.125,217.5)"/>
<path d="M0 0 C0.99 0.495 0.99 0.495 2 1 C2 7.93 2 14.86 2 22 C5.2523959 22.65047918 7.9715807 23.14351958 11.20703125 23.31640625 C11.95791016 23.35830078 12.70878906 23.40019531 13.48242188 23.44335938 C14.25134766 23.48267578 15.02027344 23.52199219 15.8125 23.5625 C16.60076172 23.60568359 17.38902344 23.64886719 18.20117188 23.69335938 C20.13394215 23.79878321 22.06695026 23.89983094 24 24 C24.33 22.02 24.66 20.04 25 18 C25.33 18 25.66 18 26 18 C26 20.31 26 22.62 26 25 C17.42 25 8.84 25 0 25 C0 16.75 0 8.5 0 0 Z " fill="#726ACE" transform="translate(218,309)"/>
<path d="M0 0 C0 3 0 3 -1.390625 4.46484375 C-2.00421875 4.95082031 -2.6178125 5.43679687 -3.25 5.9375 C-8.30765806 9.87887627 -8.30765806 9.87887627 -12 15 C-13.64363134 15.72159424 -15.31050386 16.39351421 -17 17 C-13.42078413 9.19869938 -7.44067387 4.01989653 0 0 Z " fill="#524FA1" transform="translate(216,172)"/>
<path d="M0 0 C-3.92286166 3.92286166 -10.93107508 4.74978815 -16.34765625 5.19140625 C-17.89974614 5.18821921 -19.45150196 5.10557941 -21 5 C-14.56728131 -0.62862885 -8.18148426 -1.57190554 0 0 Z " fill="#5652A6" transform="translate(238,167)"/>
<path d="M0 0 C0 0.33 0 0.66 0 1 C-1.28197266 1.27263672 -1.28197266 1.27263672 -2.58984375 1.55078125 C-4.24693359 1.92783203 -4.24693359 1.92783203 -5.9375 2.3125 C-7.03964844 2.55613281 -8.14179688 2.79976562 -9.27734375 3.05078125 C-10.17582031 3.36402344 -11.07429687 3.67726562 -12 4 C-12.33 4.99 -12.66 5.98 -13 7 C-13.66 7 -14.32 7 -15 7 C-15 14.26 -15 21.52 -15 29 C-15.33 29 -15.66 29 -16 29 C-16.19720979 25.41713181 -16.38107522 21.83369943 -16.5625 18.25 C-16.61857422 17.23421875 -16.67464844 16.2184375 -16.73242188 15.171875 C-16.78076172 14.1921875 -16.82910156 13.2125 -16.87890625 12.203125 C-16.9260376 11.30239258 -16.97316895 10.40166016 -17.02172852 9.47363281 C-17.00044238 7.05036163 -16.91843987 5.24405167 -16 3 C-10.42266865 0.26025829 -6.15762212 -0.32987261 0 0 Z " fill="#716BD2" transform="translate(261,220)"/>
<path d="M0 0 C4.04224085 1.39588173 6.94148485 3.30564036 10.25 6 C11.12140625 6.70125 11.9928125 7.4025 12.890625 8.125 C15 10 15 10 16 12 C14.35 12 12.7 12 11 12 C11 11.34 11 10.68 11 10 C10.01 10 9.02 10 8 10 C7.938125 9.38125 7.87625 8.7625 7.8125 8.125 C7.18108908 5.75620163 7.18108908 5.75620163 4.625 4.8125 C3.75875 4.544375 2.8925 4.27625 2 4 C1.01 3.67 0.02 3.34 -1 3 C-0.67 2.01 -0.34 1.02 0 0 Z " fill="#5C58B1" transform="translate(305,171)"/>
<path d="M0 0 C0.99 0.495 0.99 0.495 2 1 C2.93315743 4.38476631 3.11910887 7.58525438 3.09765625 11.08203125 C3.09282227 12.47905273 3.09282227 12.47905273 3.08789062 13.90429688 C3.07951172 14.86400391 3.07113281 15.82371094 3.0625 16.8125 C3.05798828 17.79154297 3.05347656 18.77058594 3.04882812 19.77929688 C3.03708684 22.18626111 3.02066419 24.59309857 3 27 C2.34 27.33 1.68 27.66 1 28 C1.020625 26.72125 1.04125 25.4425 1.0625 24.125 C1.06785243 20.71015001 0.87762625 17.39331755 0.5 14 C-0.0227149 9.30292804 -0.07619456 4.72406253 0 0 Z " fill="#6F69CA" transform="translate(277,221)"/>
<path d="M0 0 C5.402626 4.44922141 8.61030548 10.46876722 11 17 C10.6640625 19.37109375 10.6640625 19.37109375 10 21 C9.32332002 19.75539217 8.65905281 18.50403104 8 17.25 C7.62875 16.55390625 7.2575 15.8578125 6.875 15.140625 C6 13 6 13 6 9 C4.68 8.67 3.36 8.34 2 8 C1.34 5.36 0.68 2.72 0 0 Z " fill="#403D90" transform="translate(321,183)"/>
<path d="M0 0 C0.99 0.495 0.99 0.495 2 1 C2 8.26 2 15.52 2 23 C4.31 23.66 6.62 24.32 9 25 C9 25.33 9 25.66 9 26 C6.03 26 3.06 26 0 26 C0 17.42 0 8.84 0 0 Z " fill="#7870DB" transform="translate(165,255)"/>
<path d="M0 0 C-3.62515926 1.20838642 -5.80259269 0.77144091 -9.5625 0.1875 C-10.71878906 0.01605469 -11.87507813 -0.15539062 -13.06640625 -0.33203125 C-16 -1 -16 -1 -18 -3 C-11.66767955 -5.27963536 -5.73164286 -2.69036297 0 0 Z " fill="#514DA2" transform="translate(305,170)"/>
<path d="M0 0 C-0.125 1.75 -0.125 1.75 -1 4 C-4.17090547 6.46625981 -6.98577764 8.38242733 -11 9 C-11 8.34 -11 7.68 -11 7 C-9.36395804 5.62926214 -7.69321939 4.29944744 -6 3 C-5.46375 2.4225 -4.9275 1.845 -4.375 1.25 C-3 0 -3 0 0 0 Z " fill="#5854A9" transform="translate(315,295)"/>
<path d="M0 0 C-0.8353125 0.37125 -0.8353125 0.37125 -1.6875 0.75 C-4.15464798 1.99199765 -4.15464798 1.99199765 -6.625 4.125 C-9 6 -9 6 -11 6 C-11.33 6.66 -11.66 7.32 -12 8 C-12 6.35 -12 4.7 -12 3 C-11.01 3 -10.02 3 -9 3 C-9 2.34 -9 1.68 -9 1 C-5.92677456 0.08941469 -3.19902639 -0.08886184 0 0 Z " fill="#514D9A" transform="translate(236,195)"/>
<path d="M0 0 C0.66 0 1.32 0 2 0 C1.4359146 3.94859783 0.2568294 6.70879046 -2 10 C-2.33 10 -2.66 10 -3 10 C-3.125 4.25 -3.125 4.25 -2 2 C-1.34 2 -0.68 2 0 2 C0 1.34 0 0.68 0 0 Z " fill="#4E4BA0" transform="translate(329,274)"/>
<path d="M0 0 C3.67420866 0.30618405 4.78135513 0.75771784 7.3125 3.5625 C8.1478125 4.7690625 8.1478125 4.7690625 9 6 C7.35 6 5.7 6 4 6 C4 5.34 4 4.68 4 4 C3.01 4 2.02 4 1 4 C0.67 2.68 0.34 1.36 0 0 Z " fill="#635EC1" transform="translate(312,177)"/>
<path d="M0 0 C0.90105469 0.00902344 1.80210937 0.01804688 2.73046875 0.02734375 C3.41753906 0.03894531 4.10460937 0.05054688 4.8125 0.0625 C4.8125 0.3925 4.8125 0.7225 4.8125 1.0625 C2.1725 1.0625 -0.4675 1.0625 -3.1875 1.0625 C-3.1875 1.7225 -3.1875 2.3825 -3.1875 3.0625 C-5.8275 3.3925 -8.4675 3.7225 -11.1875 4.0625 C-7.77628592 0.32640839 -4.93646556 -0.06410994 0 0 Z " fill="#736ACF" transform="translate(240.1875,191.9375)"/>
<path d="M0 0 C0.66 1.32 1.32 2.64 2 4 C0 7 0 7 -3 8 C-3.33 8.66 -3.66 9.32 -4 10 C-4.66 9.67 -5.32 9.34 -6 9 C-5.34 8.01 -4.68 7.02 -4 6 C-3.34 6 -2.68 6 -2 6 C-1.34 4.02 -0.68 2.04 0 0 Z " fill="#726BCF" transform="translate(305,265)"/>
<path d="M0 0 C1.60031344 3.20062687 0.03173691 5.72271806 -1 9 C-1.66 9 -2.32 9 -3 9 C-3.33 9.99 -3.66 10.98 -4 12 C-4.33 11.34 -4.66 10.68 -5 10 C-4.00390625 7.6171875 -4.00390625 7.6171875 -2.5625 4.875 C-1.85287109 3.50988281 -1.85287109 3.50988281 -1.12890625 2.1171875 C-0.75636719 1.41851562 -0.38382813 0.71984375 0 0 Z " fill="#47448B" transform="translate(198,189)"/>
<path d="M0 0 C0.185625 0.61875 0.37125 1.2375 0.5625 1.875 C2.71437233 5.05602866 5.37533763 5.19451947 9 6 C9 6.33 9 6.66 9 7 C6.03 7 3.06 7 0 7 C0 4.69 0 2.38 0 0 Z " fill="#736CD1" transform="translate(165,274)"/>
<path d="M0 0 C2.5625 2.25 2.5625 2.25 5 5 C4.8125 7.3125 4.8125 7.3125 4 9 C2 8 2 8 1.3671875 6.15234375 C1.20476562 5.42144531 1.04234375 4.69054687 0.875 3.9375 C0.70742188 3.20402344 0.53984375 2.47054687 0.3671875 1.71484375 C0.24601562 1.14894531 0.12484375 0.58304688 0 0 Z " fill="#4A48A3" transform="translate(321,183)"/>
</svg>
